<?xml version="1.0" encoding="UTF-8" standalone="no"?>
<!-- Created with Inkscape (http://www.inkscape.org/) -->

<svg
   xmlns:dc="http://purl.org/dc/elements/1.1/"
   xmlns:cc="http://creativecommons.org/ns#"
   xmlns:rdf="http://www.w3.org/1999/02/22-rdf-syntax-ns#"
   xmlns:svg="http://www.w3.org/2000/svg"
   xmlns="http://www.w3.org/2000/svg"
   xmlns:xlink="http://www.w3.org/1999/xlink"
   xmlns:sodipodi="http://sodipodi.sourceforge.net/DTD/sodipodi-0.dtd"
   xmlns:inkscape="http://www.inkscape.org/namespaces/inkscape"
   id="svg6494"
   version="1.1"
   inkscape:version="0.91 r13725"
   width="914.8678"
   height="837.22296"
   viewBox="0 0 914.8678 837.22296"
   sodipodi:docname="Found-Cartoon-Animals-Request-3-2016072659-800px.svg">
  <metadata
     id="metadata6500">
    <rdf:RDF>
      <cc:Work
         rdf:about="">
        <dc:format>image/svg+xml</dc:format>
        <dc:type
           rdf:resource="http://purl.org/dc/dcmitype/StillImage" />
        <dc:title></dc:title>
      </cc:Work>
    </rdf:RDF>
  </metadata>
  <defs
     id="defs6498">
    <linearGradient
       inkscape:collect="always"
       id="linearGradient6573">
      <stop
         style="stop-color:#de4b44;stop-opacity:1"
         offset="0"
         id="stop6575" />
      <stop
         style="stop-color:#dd2d25;stop-opacity:1"
         offset="1"
         id="stop6577" />
    </linearGradient>
    <linearGradient
       inkscape:collect="always"
       id="linearGradient6555">
      <stop
         style="stop-color:#35455b;stop-opacity:1"
         offset="0"
         id="stop6557" />
      <stop
         style="stop-color:#2d353e;stop-opacity:1"
         offset="1"
         id="stop6559" />
    </linearGradient>
    <radialGradient
       inkscape:collect="always"
       xlink:href="#linearGradient6555"
       id="radialGradient6561"
       cx="249.9583"
       cy="518.5564"
       fx="249.9583"
       fy="518.5564"
       r="241.91872"
       gradientTransform="matrix(0.47101999,1.3356745,-0.97505967,0.34385068,643.68971,-93.121661)"
       gradientUnits="userSpaceOnUse" />
    <radialGradient
       inkscape:collect="always"
       xlink:href="#linearGradient6573"
       id="radialGradient6579"
       cx="388.84189"
       cy="779.1723"
       fx="388.84189"
       fy="779.1723"
       r="265.06165"
       gradientTransform="matrix(-1.117228,-0.2409365,0.12480534,-0.57872498,702.22796,1196.3684)"
       gradientUnits="userSpaceOnUse" />
  </defs>
  <sodipodi:namedview
     pagecolor="#ffffff"
     bordercolor="#666666"
     borderopacity="1"
     objecttolerance="10"
     gridtolerance="10"
     guidetolerance="10"
     inkscape:pageopacity="0"
     inkscape:pageshadow="2"
     inkscape:window-width="1366"
     inkscape:window-height="715"
     id="namedview6496"
     showgrid="false"
     inkscape:zoom="0.54926622"
     inkscape:cx="457.43389"
     inkscape:cy="418.74048"
     inkscape:window-x="-8"
     inkscape:window-y="-8"
     inkscape:window-maximized="1"
     inkscape:current-layer="svg6494"
     fit-margin-top="0"
     fit-margin-left="0"
     fit-margin-right="0"
     fit-margin-bottom="0" />
  <path
     style="fill:#fede73;fill-opacity:1;fill-rule:evenodd;stroke:#000000;stroke-width:1px;stroke-linecap:butt;stroke-linejoin:miter;stroke-opacity:1"
     d="m 62.795293,594.90149 -50.00232,28.05008 18.293532,13.41526 26.830513,2.43914 37.806631,-14.63483 z"
     id="path4222"
     inkscape:connector-curvature="0" />
  <path
     style="fill:#fede73;fill-opacity:1;fill-rule:evenodd;stroke:#000000;stroke-width:1px;stroke-linecap:butt;stroke-linejoin:miter;stroke-opacity:1"
     d="m 117.67589,638.80597 c 0,0 12.83653,58.60793 -64.637147,96.34593 -79.927227,38.93315 71.954557,45.12405 71.954557,45.12405 l 32.92836,-19.5131 37.80663,-54.8806 18.29354,-41.46534 z"
     id="path4224"
     inkscape:connector-curvature="0"
     sodipodi:nodetypes="csccccc" />
  <path
     style="fill:#fede73;fill-opacity:1;fill-rule:evenodd;stroke:#000000;stroke-width:1px;stroke-linecap:butt;stroke-linejoin:miter;stroke-opacity:1"
     d="m 484.7661,648.56252 30.48922,26.83051 21.95224,19.5131 25.61094,28.05009 23.17181,29.26965 28.05008,23.1718 39.0262,30.48922 45.12405,20.73267 37.80663,-6.09784 30.48922,-13.41526 13.41526,-17.07396 2.43913,-7.31741 -17.07396,-6.09785 -50.00232,-14.63482 -47.56318,-35.3675 -56.10017,-47.56318 -28.05008,-36.58706 -34.14793,-30.48922 z"
     id="path4226"
     inkscape:connector-curvature="0" />
  <path
     style="fill:#b2914f;fill-opacity:1;fill-rule:evenodd;stroke:#000000;stroke-width:1px;stroke-linecap:butt;stroke-linejoin:miter;stroke-opacity:1"
     d="m 443.30076,666.85605 43.90448,25.61095 31.70878,26.83051 30.48922,32.92836 26.83052,29.26965 29.26965,20.73267 39.0262,14.63482 26.83051,3.65871 -56.10016,-43.90448 -35.3675,-32.92835 -41.46534,-47.56319 -52.44145,-47.56318 -30.48922,-1.21957 z"
     id="path4216"
     inkscape:connector-curvature="0" />
  <path
     style="fill:#b2914f;fill-opacity:1;fill-rule:evenodd;stroke:#000000;stroke-width:1px;stroke-linecap:butt;stroke-linejoin:miter;stroke-opacity:1"
     d="m 215.24139,664.41691 -24.39137,46.34362 -37.80663,52.44146 1.21956,13.41525 25.61095,-4.87827 40.24577,-29.26965 18.29353,-30.48922 19.5131,-42.68491 z"
     id="path4218"
     inkscape:connector-curvature="0" />
  <path
     style="fill:#b2914f;fill-opacity:1;fill-rule:evenodd;stroke:#000000;stroke-width:1px;stroke-linecap:butt;stroke-linejoin:miter;stroke-opacity:1"
     d="m 588.584,557.86085 -9.93046,26.48122 52.96243,11.03384 50.75566,0 41.92859,-17.65415 75.03011,-63.99626 -60.68611,17.65414 -43.03198,14.34399 -47.44551,13.24061 -36.41167,1.10338 z"
     id="path4214"
     inkscape:connector-curvature="0" />
  <path
     style="fill:#fede73;fill-opacity:1;fill-rule:evenodd;stroke:#000000;stroke-width:1px;stroke-linecap:butt;stroke-linejoin:miter;stroke-opacity:1"
     d="m 587.59014,500.68595 54.4663,-35.4031 35.40309,-39.48806 32.67978,10.89326 43.57304,-1.36166 80.3378,-20.42486 68.08287,-32.67978 -20.42486,47.65801 -89.8694,84.42276 -80.33779,28.59481 -65.35956,14.97824 -44.9347,0 -9.5316,0 -9.5316,-31.31813 z"
     id="path4212"
     inkscape:connector-curvature="0" />
  <path
     style="fill:#b2914f;fill-opacity:1;fill-rule:evenodd;stroke:none;stroke-width:1px;stroke-linecap:butt;stroke-linejoin:miter;stroke-opacity:1"
     d="m 576.69688,481.62274 118.4642,-190.63205 140.25072,47.65801 -13.61657,20.42487 -24.50984,12.25492 -85.78442,-1.36166 -31.31812,55.82796 -40.84973,38.12641 -49.01967,39.48806 z"
     id="path4208"
     inkscape:connector-curvature="0" />
  <path
     style="fill:#fede73;fill-opacity:1;fill-rule:evenodd;stroke:none;stroke-width:1px;stroke-linecap:butt;stroke-linejoin:miter;stroke-opacity:1"
     d="m 642.05644,116.69853 c -85.78443,1.36166 -92.59271,-2.72332 -118.4642,36.76475 -25.8715,39.48807 -80.36024,93.70309 20.42486,202.88697 16.33989,17.70155 -4.08497,2.72332 28.59481,19.06321 32.67978,16.33989 -13.61658,98.03934 -13.61658,98.03934 l 13.61657,12.25492 c 0,0 88.50774,-47.65802 113.01757,-155.22897 7.94023,-34.84875 76.25283,5.44664 108.93261,-19.0632 32.67978,-24.50983 85.78442,-85.78442 87.14608,-113.01757 1.36166,-27.23315 -2.72332,-27.23315 -44.9347,-29.95647 -42.21138,-2.72331 -194.71702,-51.74298 -194.71702,-51.74298 z"
     id="path4206"
     inkscape:connector-curvature="0"
     sodipodi:nodetypes="csscccssssc" />
  <path
     style="fill:url(#radialGradient6579);fill-opacity:1;fill-rule:evenodd;stroke:#000000;stroke-width:1px;stroke-linecap:butt;stroke-linejoin:miter;stroke-opacity:1"
     d="m 71.376998,574.71238 c 39.941752,-1.979 24.622831,43.32623 125.082002,61.63461 100.45918,18.30839 142.83289,6.58162 190.34218,-3.62556 47.5093,-10.20718 84.61315,-21.20228 114.2053,-49.85152 29.59216,-28.64925 34.36049,-39.74614 44.41318,-88.82635 10.0527,-49.08022 43.41176,13.59091 43.50678,43.50678 0.095,29.91586 -21.83745,70.32381 -67.07296,93.35831 -45.23551,23.0345 -84.85678,32.3739 -156.80569,37.16204 -71.94892,4.78813 -79.76989,10.87538 -172.21436,-8.15752 C 100.38896,640.88027 31.435249,576.69138 71.376998,574.71238 Z"
     id="path6563"
     inkscape:connector-curvature="0"
     sodipodi:nodetypes="zzzzzzzzzz" />
  <path
     style="fill:url(#radialGradient6561);fill-opacity:1;fill-rule:evenodd;stroke:#000000;stroke-width:1px;stroke-linecap:butt;stroke-linejoin:miter;stroke-opacity:1"
     d="m 228.93443,246.20662 c -6.50282,-10e-4 -12.90931,0.35416 -19.1836,1.0918 -101.36823,11.91726 -137.358295,90.06971 -144.808593,151.62695 -7.450298,61.55724 15.639412,106.03675 7.242188,166.16601 -1.066418,7.63621 59.352375,58.25218 137.017575,73.91993 77.6652,15.66775 176.84243,-0.41409 219.16602,-17.40039 C 557.80474,575.90773 553.69701,490.92907 539.27427,476.57967 499.81645,437.32249 470.09433,373.93518 414.30943,324.46248 363.75437,279.62785 291.79498,246.22024 228.93443,246.20662 Z m 180.12304,423.89062 c -14.08163,0.0207 -29.41089,1.04123 -48.9414,0.57032 -52.08137,-1.25577 -104.50782,2.13281 -104.50782,2.13281 l -15.99804,44.78906 c 0,0 77.73179,30.1219 121.57226,27.72656 43.84047,-2.39534 169.928,-28.16208 121.57227,-55.45312 -30.22233,-17.0569 -50.22788,-19.80005 -73.69727,-19.76563 z"
     id="path6542"
     inkscape:connector-curvature="0" />
  <path
     style="fill:#d51021;fill-opacity:1;fill-rule:evenodd;stroke:#000000;stroke-width:1px;stroke-linecap:butt;stroke-linejoin:miter;stroke-opacity:1"
     d="m 642.03599,82.76326 -25.06836,8.023438 -26.07227,28.076172 6.01758,99.27344 -108.29883,7.01953 -13.03515,16.04297 -3.00782,21.05859 14.03711,39.10742 16.04493,5.01367 36.09961,-6.01562 49.13476,-20.05664 26.07227,-14.03711 22.06054,-23.06445 35.09571,12.0332 25.06836,-7.01953 23.06445,-16.04297 8.02148,-26.07227 1.00391,-42.11523 20.05469,-11.03125 10.02734,-7.01953 0,-12.03321 -6.01758,-10.02734 -10.02734,-5.01367 -24.06641,8.02148 -18.04883,-20.05468 -34.09375,-21.056644 -24.0664,-3.009766 z m 83.22851,186.51367 -14.03711,5.01367 -17.04687,16.04297 20.05469,15.04297 17.04687,1.00195 5.01367,17.04688 -4.01172,18.04883 -13.03515,17.04687 7.01953,7.01953 19.05273,6.01758 18.04883,-10.02734 26.07227,-42.11719 -13.03711,-12.0332 -11.0293,-25.06836 -17.04687,-11.0293 -23.06446,-2.00586 z"
     id="path4228"
     inkscape:connector-curvature="0" />
  <path
     style="fill:#104fb9;fill-opacity:1;fill-rule:evenodd;stroke:#000000;stroke-width:1px;stroke-linecap:butt;stroke-linejoin:miter;stroke-opacity:1"
     d="m 653.06659,137.91551 -10.02756,12.03308 -3.00827,21.05789 4.01102,36.09924 16.04411,11.03032 20.05513,4.01103 18.04962,-13.03584 -1.00276,-31.08545 -14.03859,-30.0827 L 669.1107,135.91 Z"
     id="path4230"
     inkscape:connector-curvature="0" />
  <path
     style="fill:#08247a;fill-opacity:1;fill-rule:evenodd;stroke:#000000;stroke-width:1px;stroke-linecap:butt;stroke-linejoin:miter;stroke-opacity:1"
     d="m 514.68638,8.5601354 -29.08008,11.0292966 -2.00586,17.046875 23.06445,35.097656 40.10938,64.175777 42.11523,61.16797 4.01172,-81.22265 L 559.80943,55.689041 534.74107,14.57576 514.68638,8.5601354 Z m 114.31445,233.6425746 -3.00781,29.08008 32.08789,44.12109 20.05469,22.06055 28.07617,17.04688 16.04492,5.01367 13.03516,-24.06641 -1.00196,-25.06836 -29.08007,-5.01367 -25.06836,-19.05273 -19.05274,-25.06836 -16.04492,-16.04492 -16.04297,-3.00782 z"
     id="path4235"
     inkscape:connector-curvature="0" />
  <path
     inkscape:connector-curvature="0"
     id="path6506"
     d="m 679.35878,834.7307 c -4.125,-1.3305 -15.3703,-4.1897 -24.9894,-6.354 -22.8318,-5.137 -27.5077,-6.8279 -44.5117,-16.09657 -24.0128,-13.08908 -34.6697,-20.67877 -47.1488,-33.57852 -15.0817,-15.59018 -38.9376,-42.11441 -48.0994,-53.47937 -9.5624,-11.86198 -12.4093,-12.52078 -22.7508,-5.26473 -12.4948,8.7669 -71.2667,26.07195 -94.6217,27.86079 -4.3331,0.33189 -15.2983,1.29169 -24.3671,2.13289 -14.3491,1.33099 -18.891,1.2475 -35,-0.64333 -37.911,-4.44986 -68.91076,-10.74946 -83.51116,-16.97068 -6.1875,-2.63649 -12.2752,-5.13123 -13.5281,-5.54386 -3.72,-1.22517 -6.859,1.39253 -10.2401,8.53968 -3.7775,7.98494 -16.5865,21.4844 -28.3024,29.82808 -14.7315,10.49117 -39.7482,20.72767 -57.371,23.47537 -21.2612,3.31499 -76.723501,-3.57531 -92.635401,-11.50848 -2.5174,-1.25507 -8.9861,-4.01483 -14.375,-6.13282 -16.2006,-6.36725 -25.423,-13.94809 -25.423,-20.89768 0,-3.86608 3.7406,-6.24704 13.1917,-8.39665 10.1631,-2.31155 34.7854,-13.88392 47.8414,-22.48527 10.2221,-6.73433 16.6972,-13.88898 27.450701,-30.33165 9.8289,-15.02888 13.1842,-24.9819 12.5638,-37.26857 -0.432,-8.55474 -0.7857,-9.56694 -4.7841,-13.69225 -5.9516,-6.14049 -12.165801,-7.90084 -17.692901,-5.012 -20.9697,10.96016 -26.9017,12.50279 -44.3912,11.54394 -17.9115,-0.98197 -37.621,-8.49218 -44.1845,-16.83622 -4.0422,-5.13882 -3.25389996,-7.34681 3.2033,-8.97276 12.2535,-3.08545 38.3137,-16.35047 46.3653,-23.60056 1.582,-1.42456 3.2734,-5.23835 4.1097,-9.26671 1.057,-5.09155 2.5364,-7.92668 5.7731,-11.06385 5.842,-5.66225 7.0262,-10.71454 5.5601,-23.72084 -0.6563,-5.82175 -1.1721,-15.36624 -1.1462,-21.20999 0.068,-15.41678 -2.1569,-44.05622 -4.3215,-55.625 -5.2601,-28.11235 -5.6639,-69.64749 -0.901,-92.68245 2.2845,-11.04856 9.8038,-30.7638 15.663,-41.06755 1.5638,-2.75 4.0944,-9.21875 5.6237,-14.375 1.91,-6.44013 4.0764,-10.74461 6.9204,-13.75 2.2771,-2.40625 5.4028,-6.90625 6.9461,-10 3.4448,-6.90544 20.435001,-24.61666 30.584101,-31.8819 4.125,-2.95291 12.2812,-7.34762 18.125,-9.76604 5.8437,-2.41842 14,-5.80173 18.125,-7.51849 21.9578,-9.13846 63.5814,-13.37168 89.5362,-9.10606 12.6299,2.07571 74.94526,21.45161 93.58876,29.09985 16.3845,6.72153 34.8734,17.29631 48.5598,27.77389 15.4963,11.86319 44.0603,37.9725 51.1035,46.71189 23.1311,28.70179 41.8898,53.99665 50.4832,68.07327 2.8501,4.66873 7.8257,11.58234 11.0568,15.36359 3.2312,3.78125 8.4155,10.8125 11.5209,15.625 3.1053,4.8125 6.8403,9.80695 8.3,11.09879 3.3794,2.99068 10.4108,4.27954 18.3665,3.3666 6.0947,-0.69938 6.311,-0.86933 9.6595,-7.59039 4.3862,-8.80379 6.3293,-15.34618 10.9469,-36.85846 5.9387,-27.66647 5.6686,-28.6515 -11.3122,-41.24682 -7.0481,-5.22785 -14.6457,-12.35581 -19.7561,-18.53499 -18.0684,-21.84718 -38.652,-40.85973 -44.236,-40.85973 -7.4906,0 -16.344,-12.41341 -17.8459,-25.02186 -0.449,-3.76923 -1.9049,-12.71422 -3.2353,-19.87774 -1.3304,-7.16354 -2.7671,-17.92951 -3.1927,-23.9244 l -0.7736,-10.8998 7.4043,-8.60293 c 6.0464,-7.0252 8.1727,-10.77572 11.5941,-20.4506 2.3044,-6.51622 4.9273,-12.7012 5.8287,-13.7444 0.9013,-1.0432 3.7358,-6.94945 6.2988,-13.125 2.563,-6.17555 6.7352,-14.32202 9.2714,-18.10327 2.5362,-3.78125 6.1146,-9.84734 7.9521,-13.48019 1.8374,-3.63286 5.5939,-8.85845 8.3479,-11.61242 8.96,-8.95997 9.2011,-13.76862 1.2176,-24.28239 -2.6103,-3.4375 -7.7317,-11.83455 -11.3809,-18.660107 -3.6493,-6.82557 -9.2211,-15.82556 -12.3818,-20 -3.1607,-4.17444 -11.0356,-15.1409 -17.4998,-24.36992 -10.5868,-15.11494 -11.8078,-17.43918 -12.3039,-23.42257 -0.6812,-8.21444 1.1381,-11.32455 10.1091,-17.28096 12.222,-8.114938 33.362,-11.494378 46.8487,-7.489238 11.2373,3.33711 23.9218,18.869758 37.9712,46.496918 3.9224,7.71327 8.0344,15.30702 9.1378,16.875 1.1034,1.56799 3.1748,6.78838 4.6032,11.60088 1.4284,4.8125 3.2415,9.51471 4.0291,10.44935 0.7877,0.93464 2.8384,4.59089 4.5571,8.125 3.7201,7.649337 7.2405,8.869747 12.3224,4.27181 18.2727,-16.53248 40.7892,-23.50744 61.7679,-19.13393 18.5761,3.87265 32.3833,12.12811 48.0934,28.755607 5.9168,6.26236 11.0704,10.65716 12.4971,10.65716 1.3353,0 5.6977,-1.125 9.6943,-2.5 9.5364,-3.28101 15.4902,-3.19086 20.6377,0.3125 6.7414,4.58819 8.7452,8.33666 9.8166,18.36391 1.2412,11.61639 3.397,13.69476 18.005,17.35854 18.9735,4.7587 41.6793,6.86895 65.2907,6.06804 29.5802,-1.00339 39.3878,1.36545 41.8133,10.09922 3.9049,14.0606 0.2861,29.66799 -11.9641,51.59977 -3.6983,6.62113 -6.7242,12.35326 -6.7242,12.73805 0,1.12957 -15.02,24.77348 -20.0646,31.58497 -2.5459,3.4375 -6.1714,7.65625 -8.0567,9.375 -1.8853,1.71875 -4.7591,5.21095 -6.3861,7.76044 -1.6271,2.54949 -6.2508,8.46101 -10.2751,13.13671 -8.5323,9.91351 -12.6653,19.85479 -10.3589,24.91672 1.8865,4.14052 10.58,7.87506 18.4103,7.90868 13.1971,0.0566 16.2028,7.31776 8.8919,21.48074 -3.6965,7.16088 -5.023,8.4766 -13.8117,13.69923 -5.3473,3.17765 -10.9912,6.96947 -12.5419,8.42627 -5.8459,5.49195 -18.7307,7.38398 -52.0572,7.64421 -16.8438,0.13152 -33.2219,-0.15455 -36.3957,-0.6357 -6.5255,-0.98924 -6.3133,-1.17381 -14.4113,12.5377 -10.345,17.5161 -15.7275,29.00954 -14.8622,31.73577 1.7131,5.39774 5.3911,6.3981 26.4275,7.18792 19.163,0.71946 20.4422,0.60946 36.1167,-3.1056 8.9375,-2.11832 24.4951,-5.56261 34.5726,-7.654 19.6655,-4.08122 44.8657,-11.89155 55.2669,-17.129 11.5862,-5.83416 24.1556,-13.92286 38.4378,-24.73566 20.991,-15.89199 25.8849,-15.81269 27.0477,0.43832 0.5024,7.02146 0.045,10.65538 -2.2333,17.74055 -5.5113,17.14017 -15.3536,30.8146 -45.002,62.5232 -8.6132,9.21168 -18.0341,19.89292 -20.9353,23.73612 -7.4096,9.81521 -41.386,42.82647 -53.6575,52.13321 -5.6391,4.27678 -13.5141,10.76121 -17.5,14.40983 -17.287,15.82448 -46.7702,35.69561 -65.617,44.2247 -19.5504,8.84748 -25.6059,10.27134 -49.3149,11.59559 -31.1341,1.73898 -53.4842,-0.79785 -70.7124,-8.02611 -6.9413,-2.91225 -9.2477,-2.4438 -15.2617,3.09979 -6.6685,6.14676 -9.8535,12.34606 -8.7015,16.93628 0.46,1.83255 4.8355,7.34265 9.7234,12.24465 8.4344,8.45874 19.1668,20.96578 30.0633,35.03423 2.7094,3.49811 5.6224,6.7876 6.4734,7.30997 3.5998,2.20972 19.1647,15.8199 26.1005,22.82269 8.6211,8.70447 34.851,32.08869 46.1038,41.10201 4.2054,3.36845 12.7163,8.51374 18.9132,11.43396 6.1968,2.92023 15.9384,8.14677 21.6478,11.61453 11.3878,6.91661 20.3616,10.21925 36.3281,13.36979 17.5529,3.46356 26.3821,7.77946 26.3821,12.89617 0,4.06304 -9.8447,15.83638 -19.9793,23.89339 -11.5462,9.17921 -16.622,12.06861 -28.1457,16.02211 -4.125,1.4151 -11.7188,4.2611 -16.875,6.3242 -8.6424,3.4581 -24.2395,6.5406 -32.278,6.3792 -1.8409,-0.037 -6.722,-1.1558 -10.847,-2.4862 z m 47.21,-18.76488 c 15.8906,-3.23832 28.3238,-7.56052 36.0971,-12.54859 12.7267,-8.16673 16.1901,-17.10521 7.3179,-18.88654 -30.7167,-6.16716 -36.4307,-7.65174 -44.375,-11.52939 -4.8125,-2.34899 -11,-5.18865 -13.75,-6.31036 -2.75,-1.1217 -6.4895,-3.46613 -8.31,-5.20983 -3.8025,-3.64213 -8.7663,-7.18451 -29.3853,-20.97072 -8.7142,-5.82649 -19.9471,-14.86947 -27.3047,-21.98161 -6.875,-6.6456 -15.5508,-14.84744 -19.2795,-18.2263 -12.2973,-11.14348 -20.3356,-19.7634 -27.6615,-29.66274 -10.6943,-14.451 -30.4898,-36.2811 -38.1316,-42.05069 -3.6824,-2.78022 -8.0615,-5.05496 -9.7314,-5.05496 -1.6699,0 -6.3347,2.18236 -10.3662,4.84969 -4.0314,2.66732 -12.9549,7.22421 -19.8299,10.12643 -29.3523,12.3908 -28.7986,11.91562 -23.0277,19.76284 2.0601,2.8013 6.3966,7.00958 9.6367,9.35174 3.24,2.34215 9.5559,7.58302 14.0353,11.64639 4.4794,4.06335 10.5031,9.245 13.3862,11.51478 2.883,2.26978 7.9368,7.67965 11.2307,12.02194 8.4804,11.17978 47.9167,53.2676 63.4203,67.68458 7.1771,6.67405 15.4723,13.5037 18.4339,15.17702 2.9615,1.67333 6.7909,4.3179 8.5097,5.87684 4.9906,4.52661 14.7281,9.95767 28.796,16.06097 15.377,6.67122 21.0699,8.36584 28.704,8.5444 3.0937,0.0724 7.0312,0.58194 8.75,1.13238 5.1247,1.64121 9.5723,1.38451 22.835,-1.31828 z m -80.4339,-7.34419 c 3.1083,-1.96729 -1.1537,-6.40833 -15.0633,-15.69618 -10.4313,-6.9654 -18.3334,-14.06641 -40.4629,-36.36102 -28.701,-28.91515 -43.7109,-45.01294 -49.7694,-53.3764 -5.4518,-7.526 -21.8917,-23.11055 -29.6056,-28.06529 -3.7812,-2.42874 -8.986,-6.31101 -11.5661,-8.62728 -2.5801,-2.31625 -5.1746,-4.21137 -5.7656,-4.21137 -0.591,0 -3.198,-1.6875 -5.7933,-3.75 -5.5522,-4.41236 -11.7186,-4.90297 -21.3398,-1.69785 -7.7216,2.57232 -9.2852,3.79859 -9.2852,7.28217 0,3.39572 2.4793,5.67678 10.625,9.77557 14.034,7.06163 49.4578,35.61317 58.8559,47.43772 3.3792,4.25177 18.115,19.73359 32.7461,34.40407 21.3787,21.43626 28.9872,28.21439 38.75,34.52094 22.2696,14.38572 41.9706,21.97488 47.6742,18.36492 z M 127.56622,771.61642 c 14.1177,-7.30057 35.5989,-27.80991 47.7423,-45.58233 15.5253,-22.72191 17.8831,-26.58807 23.3816,-38.33866 6.5251,-13.94465 6.2929,-16.96775 -1.5656,-20.37903 -2.8962,-1.25722 -8.3596,-2.65591 -12.1408,-3.1082 -9.4376,-1.12885 -28.5041,-6.46024 -41.0946,-11.49089 -5.7583,-2.30077 -12.3797,-4.18322 -14.7143,-4.18322 -5.0122,0 -5.7152,1.25142 -8.4262,15 -1.8031,9.14407 -11.677,32.62106 -14.4372,34.32699 -1.2346,0.763 -5.2842,5.84885 -15.077701,18.93612 -5.2634,7.03351 -13.4968,13.15674 -22.7591,16.92605 -13.3437,5.43029 -28.4431,14.80985 -29.2931,18.19661 -1.1406,4.54457 0.2127,6.28072 7.9324,10.1768 9.7425,4.91694 18.986,7.65307 30.9948,9.17464 5.5,0.69688 12.8125,1.73023 16.25,2.29633 9.831501,1.61911 28.414801,0.52718 33.207501,-1.95122 z m 53.2174,-9.98165 c 4.9428,-2.18597 10.5626,-6.48759 18.3717,-14.0625 17.5562,-17.02982 20.9205,-20.64005 22.9831,-24.66318 1.0574,-2.0625 4.9244,-7.19055 8.5932,-11.39567 6.7095,-7.69036 16.7521,-25.80696 16.7521,-30.22053 0,-3.5604 -3.6221,-6.06904 -10.9991,-7.61796 -17.0887,-3.5881 -21.0742,-1.1844 -30.4263,18.35038 -6.2461,13.04699 -26.113,44.17772 -30.4845,47.76823 -6.8195,5.60102 -13.9385,21.22554 -11.0068,24.15721 1.7814,1.78144 9.4175,0.69088 16.2166,-2.31599 z m 196.40866,-23.79102 c 8.6579,-1.06717 16.1578,-2.19759 16.6666,-2.51201 0.9817,-0.60678 34.134,-7.19143 43.6248,-8.66471 3.0938,-0.48025 6.75,-1.57518 8.125,-2.43315 3.8224,-2.38511 23.2702,-10.46233 27.5,-11.42148 5.0207,-1.13849 10.625,-6.5362 10.625,-10.23332 0,-1.64301 -1.5469,-4.52555 -3.4375,-6.40564 -4.0902,-4.0674 -20.4372,-11.10091 -29.4908,-12.68875 -3.5457,-0.62186 -10.9467,-1.94039 -16.4467,-2.93006 -7.7366,-1.39213 -24.288,-1.83939 -73.125,-1.976 -77.506,-0.21683 -101.00186,0.42157 -103.38936,2.80915 -2.7578,2.75772 -12.8606,26.10895 -12.8606,29.72527 0,1.80596 0.9843,4.13072 2.1875,5.16613 2.4648,2.12125 18.7162,7.30307 32.81246,10.46238 5.1562,1.15565 11.3437,3.07597 13.75,4.26738 7.6359,3.78079 35.2312,7.57954 62.296,8.57564 2.9816,0.10975 12.5048,-0.67364 21.1626,-1.74083 z m -15.3336,-75.49469 c 44.9231,-2.12873 62.7381,-4.15076 76.25,-8.65447 6.1875,-2.06239 23.0625,-7.51145 37.5,-12.10903 24.358,-7.75672 43.135,-15.72766 52.3724,-22.23236 2.1043,-1.48176 8.2906,-6.49996 13.7472,-11.15155 5.4567,-4.65159 12.4996,-10.11074 15.6508,-12.13144 10.1362,-6.49968 10.8132,-7.17388 14.8961,-14.83408 7.8008,-14.63585 10.4003,-32.19905 8.2314,-55.61439 -0.6711,-7.24426 -1.6562,-10.81698 -3.7916,-13.75 -1.5868,-2.17946 -4.3179,-6.62563 -6.0692,-9.88038 -2.2335,-4.151 -4.7412,-6.71205 -8.3994,-8.57835 -6.5597,-3.3465 -7.4497,-2.39331 -9.6985,10.38744 -0.8815,5.00975 -2.883,12.20239 -4.4478,15.98364 -1.5647,3.78125 -3.4924,10.03252 -4.2838,13.89171 -0.7914,3.8592 -2.8213,8.89035 -4.5108,11.18035 -1.7349,2.35157 -3.0718,5.88155 -3.0718,8.11094 0,2.17101 -1.2656,5.68011 -2.8125,7.798 -21.5132,29.45468 -25.8495,32.78169 -67.1875,51.54941 -7.9062,3.5895 -14.9537,6.98545 -15.661,7.54658 -1.4334,1.13711 -17.9792,7.07405 -30.8504,11.06962 -4.6125,1.43187 -10.4581,2.60339 -12.9902,2.60339 -5.3282,0 -19.9744,4.13802 -26.583,7.51054 -9.0735,4.63038 -33.5988,6.65903 -100.1654,8.28534 -22.52406,0.5503 -29.29066,0.67283 -44.37496,0.80361 -10.4335,0.0905 -40.0191,-5.34588 -57.5,-10.56564 -28.0554,-8.37724 -48.6562,-16.83703 -51.2601,-21.05009 -0.4648,-0.75215 -5.434,-4.3481 -11.0425,-7.991 -5.6086,-3.6429 -11.8247,-8.81591 -13.8137,-11.4956 -4.052601,-5.4602 -14.314701,-14.1255 -20.384201,-17.2125 -6.7436,-3.42988 -15.3745,-1.96962 -15.3745,2.60122 0,2.13867 16.5162,18.7057 30.0458,30.13828 4.327801,3.65704 11.291101,8.3689 15.474001,10.47083 4.1828,2.10191 9.1459,4.90932 11.0289,6.23869 1.8831,1.32936 6.9456,3.44187 11.25,4.69448 4.3045,1.25262 13.9397,4.63243 21.4116,7.5107 7.4719,2.87828 17.0344,5.98993 21.25,6.91478 15.1089,3.31471 26.5475,5.8664 34.5397,7.70499 4.4687,1.02802 19.6562,2.39545 33.75,3.03873 14.0937,0.64328 31.81246,1.61181 39.37496,2.15233 17.041,1.21795 37.2041,0.97476 77.5,-0.93471 z m -51.25,-22.6856 c 4.8125,-0.68223 14.0218,-1.77256 20.4651,-2.42293 20.6261,-2.08197 35.4871,-5.12848 67.0349,-13.74232 22.134,-6.04347 39.682,-12.41786 48.125,-17.4816 4.4688,-2.68017 12.625,-6.92963 18.125,-9.44325 11.3916,-5.2062 15.625,-8.56221 15.625,-12.38656 0,-6.63775 -15.1035,-46.31473 -26.5546,-69.75927 -3.9575,-8.10235 -7.1954,-14.97694 -7.1954,-15.27685 0,-0.29993 -1.5172,-3.79572 -3.3715,-7.76845 -1.8543,-3.97273 -3.9637,-8.62939 -4.6875,-10.34814 -0.7238,-1.71875 -3.4991,-7.21092 -6.1674,-12.20484 -6.2206,-11.64229 -7.7003,-12.04648 -19.7966,-5.40767 -8.5315,4.68232 -12.1917,6.20642 -30.352,12.63826 -3.4375,1.21746 -12.4375,5.02324 -20,8.4573 -27.4474,12.46355 -51.7507,18.48353 -94.37496,23.3769 -9.2813,1.0655 -23.0625,2.74945 -30.625,3.74209 -7.5625,0.99265 -22.1875,2.41789 -32.5,3.1672 -10.3125,0.74931 -19.4586,1.59844 -20.3245,1.88695 -0.866,0.2885 -4.522,-0.0344 -8.1244,-0.7176 -9.4393,-1.79013 -20.6367,-0.29578 -22.8149,3.04477 -1.0242,1.57067 -2.2721,9.48317 -3.078,19.51664 -0.7456,9.28125 -2.2241,25.3125 -3.2858,35.625 -1.0616,10.3125 -1.7485,23.22985 -1.5263,28.70523 0.3931,9.68944 0.514,10.0293 4.5294,12.73042 8.4379,5.67604 45.7058,16.04703 71.3683,19.8605 7.2909,1.08344 23.9437,2.4835 37.0062,3.11125 13.0625,0.62776 25.71866,1.6633 28.12496,2.3012 4.4863,1.18935 9.0979,0.96151 24.375,-1.20422 z m -249.266161,-9.7884 c 9.8159,-3.05857 16.6287,-7.35786 17.1315,-10.81097 0.5237,-3.59715 -6.3423,-12.47236 -10.8697,-14.05065 -3.3631,-1.17236 -4.8271,-0.829 -11.6706,2.73728 -15.3554,8.00202 -24.9471,13.90928 -26.1086,16.07961 -1.4961,2.79547 0.5836,6.91688 4.3028,8.52698 3.9854,1.72539 17.7361,0.47119 27.2146,-2.48225 z m 64.614301,-30.40347 c 0.7035,-0.85938 1.9326,-11.125 2.7312,-22.8125 0.7985,-11.6875 2.011,-23.38982 2.6942,-26.00518 1.349,-5.16321 0.2353,-27.61866 -1.5404,-31.06056 -1.7954,-3.48001 -11.6578,-7.3793 -24.501,-9.68695 -6.727701,-1.20881 -13.460801,-2.85585 -14.962501,-3.66007 -4.6693,-2.50068 -10.1101,-1.8086 -12.3221,1.56737 -1.7593,2.68513 -1.834,5.70546 -0.6566,26.5625 0.7307,12.94309 1.3298,25.94968 1.3313,28.90353 0,4.75512 0.4587,5.61467 3.9807,7.5 2.1879,1.17115 5.7036,3.86077 7.8126,5.97693 2.1089,2.11617 5.2713,4.72892 7.0275,5.80613 1.7562,1.07721 6.338401,4.83322 10.182701,8.34671 10.1109,9.24083 15.5676,11.80475 18.2224,8.56209 z M 673.73378,585.8679 c 12.6616,-2.28345 29.3212,-7.56991 35,-11.10628 3.0937,-1.92659 7.5937,-4.32219 10,-5.32358 2.4062,-1.00138 6.123,-3.44255 8.2596,-5.42482 7.8505,-7.28356 16.2572,-13.91507 20.2718,-15.99111 3.3383,-1.72629 4.047,-2.77017 3.7322,-5.49699 -0.5439,-4.71073 -5.3426,-4.99333 -14.5587,-0.85738 -4.0384,1.81232 -11.7835,4.30209 -17.2112,5.53282 -5.4278,1.23074 -14.9312,3.65085 -21.1187,5.37804 -42.8494,11.96104 -64.0769,15.39825 -88.3005,14.29789 -11.1337,-0.50575 -17.0881,-0.3074 -18.1885,0.60591 -1.7796,1.47693 -2.1827,8.25634 -0.6356,10.6907 2.6829,4.22177 17.1769,7.06815 45.8746,9.00903 15.8337,1.07086 25.5748,0.7237 36.875,-1.31423 z m -164.3333,-18.89631 c 19.4748,-19.88224 27.635,-43.55154 22.6186,-65.60704 -1.1195,-4.92194 -2.0354,-10.96972 -2.0354,-13.43951 0,-5.56886 -3.7165,-13.02748 -9.88,-19.82771 -5.6668,-6.25243 -28.0293,-36.38321 -33.6787,-45.3782 -7.1272,-11.34804 -12.0988,-9.9604 -30.1913,8.42676 -5.1562,5.24024 -11.2031,10.77211 -13.4375,12.29307 -5.4603,3.71683 -5.2968,7.789 0.6862,17.08883 6.8096,10.58485 15.7133,27.32044 19.5551,36.7563 1.8194,4.46875 3.8202,9.25 4.4461,10.625 4.3738,9.60834 16.8265,42.66817 19.3785,51.4466 5.8029,19.96136 9.2913,21.14011 22.5384,7.6159 z m 132.024,-17.7033 c 8.6987,-0.92741 16.3006,-1.98583 16.8932,-2.35204 0.5925,-0.3662 6.6926,-1.62237 13.5558,-2.79147 14.2294,-2.4239 29.9893,-7.07336 46.0799,-13.59438 6.102,-2.47297 11.8011,-4.49631 12.6646,-4.49631 0.8636,0 7.121,-2.7547 13.9054,-6.12154 6.7845,-3.36685 14.4438,-6.994 17.0207,-8.06034 4.2831,-1.77229 13.3795,-7.98572 25.9027,-17.69312 20.1991,-15.65739 25.0188,-19.67691 29.372,-24.49541 2.7179,-3.00838 8.0575,-7.79185 11.8658,-10.62994 12.1894,-9.08405 41.8499,-39.31989 44.4328,-45.29462 4.4757,-10.35347 -2.5326,-12.6732 -14.4883,-4.79559 -10.4018,6.85382 -25.4281,12.81084 -39.8953,15.8161 -7.2188,1.49954 -15.6563,3.4928 -18.75,4.42946 -3.0938,0.93667 -9.8438,2.34073 -15,3.12011 -5.1563,0.7794 -14.4375,2.58589 -20.625,4.01443 -21.1774,4.88933 -45.9888,6.22452 -75.9813,4.08883 l -13.4812,-0.95996 -6.0708,4.14268 c -3.3389,2.27847 -7.0683,5.83143 -8.2876,7.89547 -3.6894,6.24572 -20.701,23.28973 -28.6143,28.66884 -4.0894,2.77975 -9.8873,7.50617 -12.8842,10.50316 -2.997,2.99699 -7.668,6.33689 -10.3799,7.42199 -3.057,1.22316 -6.8803,4.41489 -10.0606,8.39869 l -5.1297,6.42576 0.9048,8.125 c 0.4977,4.46875 1.1108,11.21875 1.3626,15 0.6582,9.8857 1.3452,11.92619 4.5324,13.46226 3.9192,1.88882 22.2533,1.78722 41.1555,-0.22806 z M 206.85872,495.94298 c 7.5625,-0.66849 19.0937,-1.74996 25.625,-2.40329 6.5312,-0.65332 15.8125,-1.20679 20.625,-1.22991 15.2632,-0.0734 47.54046,-5.63543 78.74996,-13.57029 16.7012,-4.24622 23.0279,-6.37865 41.25,-13.90337 6.875,-2.83902 15.3125,-6.27022 18.75,-7.62489 7.8262,-3.08422 17.7935,-10.3319 19.5696,-14.23 1.9628,-4.30799 -2.9363,-13.90205 -13.7603,-26.94714 -4.8488,-5.84375 -10.7357,-14.5625 -13.0821,-19.375 -4.4943,-9.21801 -14.2214,-21.28199 -29.2897,-36.32641 -4.9844,-4.97649 -9.0625,-9.95237 -9.0625,-11.05751 0,-1.10515 -3.7969,-5.86462 -8.4375,-10.5766 -4.6407,-4.71199 -10.6875,-11.45044 -13.4375,-14.97435 -5.4532,-6.9878 -10.7248,-10.19013 -16.7749,-10.19013 -3.9146,0 -20.4515,5.2456 -23.0727,7.3188 -2.4338,1.92496 -23.35856,8.51347 -37.65636,11.85675 -24.3769,5.70008 -55.4665,7.09252 -85.1323,3.81295 -5.7851,-0.63955 -6.6233,-0.40462 -8.9047,2.49571 -5.8033,7.37778 -7.2851,39.2991 -4.1568,89.55132 0.7501,12.05078 1.4181,31.90222 1.4844,44.1143 0.099,18.31185 0.4614,22.54467 2.0655,24.14868 1.6666,1.66661 4.7318,1.82908 21.4214,1.13537 10.712,-0.44527 25.664,-1.3565 33.2265,-2.02499 z m -78.9804,-2.61306 c 5.2631,-2.80315 5.663,-4.57102 5.3437,-23.62395 -0.1679,-10.01544 -0.6429,-18.75619 -1.0556,-19.42389 -1.5789,-2.55484 -2.4203,-78.62554 -1.0403,-94.05408 1.6467,-18.40901 0.856,-21.17628 -6.7843,-23.74298 -2.7407,-0.92075 -8.7332,-1.76451 -13.3167,-1.875 -9.0861,-0.21907 -13.884401,2.05742 -16.958201,8.04552 -4.551,8.86593 -16.3274,37.35249 -20.6199,49.87855 -4.3082,12.57164 -5.011,16.23121 -5.6027,29.17134 -0.7448,16.28817 2.7467,57.09465 5.1405,60.08035 1.9584,2.44258 22.0791,10.78665 33.873901,14.04752 11.4508,3.16579 17.1268,3.56993 21.0196,1.49661 z m 477.78156,-9.68402 c 19.0459,-11.75086 41.1359,-31.6591 56.1989,-50.6485 4.8125,-6.06695 10.509,-13.06876 12.6589,-15.55956 6.3931,-7.4067 22.5169,-37.7251 25.554,-48.05069 1.4214,-4.83221 -0.4803,-9.11701 -5.3693,-12.09781 -9.3312,-5.68922 -13.7999,-2.07001 -19.4425,15.74638 -2.1994,6.94463 -5.1606,14.10348 -6.5805,15.90856 -1.4199,1.80507 -4.5983,7.65435 -7.0632,12.99839 -4.4619,9.67345 -18.9411,31.32163 -23.9698,35.83756 -1.4522,1.30412 -4.0827,4.8323 -5.8456,7.8404 -1.7628,3.0081 -5.5647,6.94509 -8.4486,8.74886 -6.8634,4.2928 -23.5785,18.38619 -25.4931,21.49456 -0.8248,1.33905 -3.4969,3.0938 -5.938,3.89947 -2.9674,0.9793 -4.6845,2.44487 -5.1806,4.42165 -1.9701,7.84917 5.6765,7.63122 18.9194,-0.53927 z m -21.732,-13.27166 c 2.987,-2.42541 6.6249,-5.41291 8.0844,-6.63889 1.4595,-1.22596 6.522,-5.10956 11.25,-8.63021 28.3158,-21.08496 57.589,-66.10749 67.2805,-103.47844 l 2.2776,-8.7824 -2.8528,-5.5926 c -1.5691,-3.07593 -4.9758,-7.56136 -7.5706,-9.96761 -6.2837,-5.82715 -20.5619,-24.03989 -30.5396,-38.95499 -12.6698,-18.93953 -14.8773,-19.88872 -27.4058,-11.78373 -10.9751,7.10011 -15.2076,9.41956 -20.7692,11.38183 -2.9711,1.04827 -7.1712,3.25539 -9.3336,4.90473 -2.1624,1.64935 -9.2453,4.76079 -15.7398,6.91431 -24.106,7.99339 -26.2475,11.16268 -17.5272,25.93881 5.3034,8.98635 27.8679,32.11403 44.8277,45.94654 9.5357,7.77738 11.5197,11.62938 9.8414,19.10745 -0.4222,1.88103 -1.5788,7.74474 -2.5704,13.03045 -0.9916,5.28573 -2.6465,11.24178 -3.6775,13.23566 -1.0311,1.99389 -4.1149,9.48172 -6.8529,16.6396 -2.738,7.15789 -6.7081,16.79887 -8.8223,21.42439 -4.2625,9.32553 -4.8412,14.78931 -1.8798,17.75066 3.0018,3.00183 6.0336,2.38293 11.9799,-2.44556 z m -145.2404,-47.95325 c 10.8017,-9.04886 20.7425,-19.53245 22.4656,-23.69226 1.3936,-3.36458 1.2207,-4.5851 -1.4884,-10.50258 -1.686,-3.68256 -7.2258,-11.27313 -12.3107,-16.86795 -5.0849,-5.5948 -15.1515,-16.75906 -22.3703,-24.80946 -7.2187,-8.0504 -15.375,-16.28131 -18.125,-18.29093 -2.75,-2.00961 -5.4629,-4.48048 -6.0287,-5.49083 -1.3419,-2.3962 -15.9,-12.98289 -17.8531,-12.98289 -0.8287,0 -3.9505,-2.05359 -6.9374,-4.56351 -2.9869,-2.50994 -8.5245,-5.94802 -12.3058,-7.64017 -5.8784,-2.63062 -8.1062,-2.97561 -15.3672,-2.37963 -8.8711,0.72812 -16.062,3.99676 -18.3988,8.36318 -2.0224,3.77888 0.4832,7.95648 11.0157,18.3667 15.707,15.52467 23.1477,24.71143 51.9194,64.10343 2.7618,3.78125 6.5035,8.84375 8.315,11.25 1.8114,2.40625 6.1658,9.15625 9.6765,15 8.5007,14.15026 12.9198,18.12559 18.4398,16.58821 1.3614,-0.37917 5.5705,-3.28226 9.3534,-6.45131 z m 355.1319,-59.63234 c 10.1145,-2.97271 23.7009,-10.46712 25.2872,-13.94872 2.0985,-4.60563 0.066,-6.4038 -11.626,-10.2844 -5.842,-1.93903 -12.4218,-4.25603 -14.6217,-5.14888 -3.5128,-1.42569 -4.3018,-1.35014 -6.4792,0.62039 -2.2132,2.00285 -11.3959,23.36179 -11.3959,26.50661 0,4.52826 7.8879,5.4726 18.8356,2.255 z m -42.0915,-4.16453 c 7.3517,-5.05808 12.5169,-12.9642 15.9072,-24.34832 1.4187,-4.76364 3.7344,-9.58806 5.1539,-10.73755 l 2.5778,-2.08733 -2.571,-3.64592 c -1.414,-2.00525 -2.9375,-6.687 -3.3855,-10.40388 -1.013,-8.40474 -3.1569,-12.61673 -10.3192,-20.27383 -7.2558,-7.75705 -16.3308,-11.39915 -28.4823,-11.43091 -13.2994,-0.0347 -23.125,4.88877 -23.125,11.58771 0,4.82423 3.3186,7.17463 12.1348,8.59444 9.0525,1.45787 12.0348,2.8278 17.5768,8.07417 5.3897,5.10217 6.7962,10.73203 5.4197,21.6942 -1.2643,10.06907 -2.4234,12.65574 -9.0748,20.25068 -5.3704,6.1323 -6.2703,11.44721 -2.621,15.47962 3.4162,3.77493 13.2023,2.48018 20.8086,-2.75308 z m -28.5946,-14.23957 c 5.66,-5.66004 8.9609,-16.79945 6.9585,-23.4829 -0.7848,-2.61944 -2.1146,-5.20501 -2.955,-5.74574 -0.8404,-0.54072 -8.278,-0.98621 -16.528,-0.98998 -14.5236,-0.006 -15.1986,-0.12811 -21.25,-3.82535 -4.1958,-2.56341 -8.1857,-6.62216 -12.1391,-12.34841 -3.2391,-4.69144 -6.9562,-9.27729 -8.2604,-10.19077 -1.3041,-0.91347 -6.9827,-8.14392 -12.619,-16.06766 -10.6541,-14.9781 -13.8867,-18.19965 -18.2616,-18.19965 -1.9412,0 -3.2828,1.61904 -5.3019,6.39794 -2.4736,5.85481 -2.5505,6.76305 -0.9059,10.69893 0.9883,2.36557 5.0891,7.78337 9.1127,12.03957 4.0236,4.25621 8.652,9.70731 10.2852,12.11356 1.6332,2.40625 3.3257,4.65625 3.7611,5 0.4354,0.34375 5.9567,6.66362 12.2696,14.04416 11.8076,13.80463 27.4691,28.16888 35.1843,32.26983 2.4607,1.308 7.0276,2.3497 10.4375,2.38076 5.2362,0.0478 6.628,-0.51031 10.212,-4.09429 z m -534.91016,-24.0787 c 3.2047,-1.08802 8.4274,-1.83084 11.6061,-1.65068 3.1787,0.18016 8.3107,-0.0334 11.4045,-0.47448 3.0937,-0.44111 10.4062,-1.40833 16.25,-2.14936 15.2909,-1.93903 28.7569,-4.84134 49.99996,-10.77644 10.9209,-3.05119 13.6165,-4.33111 14.4141,-6.84405 0.9718,-3.06194 0.1305,-4.28543 -6.0007,-8.72688 -2.7979,-2.02676 -6.1001,-5.3509 -7.3383,-7.387 -2.7783,-4.56841 -18.17126,-12.24215 -34.20006,-17.04943 -9.6833,-2.90414 -13.6002,-3.38897 -28.125,-3.48124 -15.0953,-0.0959 -17.5342,0.19594 -23.125,2.76699 -8.227,3.78332 -14.0598,9.59891 -24.0388,23.9678 -12.6982,18.28441 -15.0156,25.63075 -9.5231,30.18916 4.3554,3.61464 20.1648,4.50534 28.6763,1.61561 z m -52.6437,-5.83426 c 2.5627,-3.62648 10.6543,-29.0616 10.6543,-33.49088 0,-5.60997 -2.8113,-6.89478 -9.4983,-4.34096 -7.1885,2.74528 -20.7528,15.29162 -24.1747,22.36029 -2.8566,5.90084 -3.4064,13.8739 -1.057,15.32595 2.2392,1.38389 9.5407,2.65065 16.2216,2.81435 4.7573,0.11662 6.2424,-0.38805 7.8541,-2.66875 z m 659.00036,-14.375 c 10.9566,-7.38739 17.8151,-13.06333 18.5383,-15.34199 0.4159,-1.31036 4.3808,-5.56474 8.8109,-9.45415 4.4301,-3.88941 8.0548,-7.80102 8.0548,-8.69246 0,-0.89144 1.9502,-3.46026 4.3337,-5.70851 2.3836,-2.24825 5.1735,-6.18629 6.1997,-8.75119 1.0798,-2.69866 3.5239,-5.62738 5.8011,-6.95133 2.3776,-1.38235 5.1278,-4.76158 6.9485,-8.53787 1.6574,-3.4375 5.8036,-11.03125 9.2138,-16.875 6.7587,-11.58201 12.5032,-26.98424 12.5032,-33.52394 0,-6.05801 -1.8038,-8.5034 -8.0247,-10.87919 -5.1719,-1.97517 -6.3637,-1.98263 -17.3566,-0.10887 -13.51,2.30285 -20.141,2.49312 -29.7228,0.85286 -3.724,-0.63751 -10.7084,-1.79967 -15.5209,-2.58259 -21.3593,-3.47477 -43.3428,-8.98143 -47.7235,-11.95425 -5.7023,-3.86967 -8.8302,-3.8485 -14.2212,0.0964 -7.1841,5.2569 -7.4288,6.01324 -7.4488,23.02602 -0.023,19.16562 -1.9452,27.99838 -9.4148,43.25202 -4.8327,9.86888 -6.4944,12.04495 -12.1971,15.97251 -3.6311,2.50087 -8.23,6.24625 -10.2197,8.32305 -2.3653,2.46881 -4.8488,3.77601 -7.174,3.77601 -1.9559,0 -5.5756,0.84375 -8.0437,1.875 -2.4682,1.03125 -5.8621,1.875 -7.5421,1.875 -4.5576,-10e-6 -7.8901,2.24324 -7.8901,5.31109 0,3.6011 12.07,14.6889 15.9901,14.6889 1.8503,0 4.7567,-2.03361 8.0005,-5.59789 6.9955,-7.68675 15.2215,-10.65505 29.4937,-10.64267 22.5833,0.0196 34.0806,3.83036 44.2016,14.65052 4.1866,4.47575 6.346,8.18305 7.8998,13.56225 3.6203,12.53293 7.4343,14.45964 16.5103,8.34029 z m -257.4164,-5.44104 c 20.3913,-5.7778 33.9306,-11.0194 39.6039,-15.33225 2.1128,-1.60612 11.0568,-6.77169 19.8757,-11.47901 18.9732,-10.12748 20.7721,-12.30231 18.4602,-22.31789 -1.997,-8.65134 -7.7689,-17.16341 -14.0212,-20.67737 -5.1446,-2.89145 -5.4076,-2.9091 -22.28,-1.49547 -9.3906,0.78679 -27.4508,1.44268 -40.1336,1.45753 -26.1064,0.0306 -43.3641,2.09352 -48.4403,5.79047 -5.8899,4.28954 -8.9944,12.2057 -8.9944,22.93477 0,15.47677 4.4384,28.75017 12.7969,38.26997 8.4862,9.66515 17.0753,10.23254 43.1328,2.84925 z m -219.1152,-4.14064 c 6.3422,-2.64995 9.1751,-9.81597 5.1884,-13.12461 -2.7951,-2.31975 -33.4231,-11.47068 -35.8325,-10.70595 -3.4301,1.08868 -4.0314,4.51959 -1.4086,8.03787 2.1294,2.85628 18.9817,15.10181 23.0116,16.721 2.7376,1.09997 4.6589,0.90271 9.0411,-0.9283 z m 373.0325,-46.78413 c 14.315,-5.48939 22.9441,-14.67422 28.7089,-30.55785 2.9998,-8.26523 3.2717,-10.62297 3.2735,-28.38884 0,-16.44488 -0.4295,-20.87663 -2.8512,-29.30426 -6.5313,-22.72948 -20.6108,-41.60318 -41.4175,-55.520577 -12.8312,-8.58264 -19.9613,-11.32108 -31.9978,-12.28929 -13.2448,-1.0654 -21.5617,1.75517 -30.6021,10.37831 -11.7638,11.220777 -17.8129,26.534817 -19.5121,49.397187 -0.655,8.81382 -0.2847,12.99252 2.0247,22.84998 3.2726,13.96874 6.4992,19.5147 12.5699,21.6056 9.4877,3.2678 21.8822,1.22185 26.252,-4.33343 2.1443,-2.72605 2.5234,-4.47186 1.9584,-9.01943 -2.9238,-23.53393 -2.3348,-29.57834 3.814,-39.14342 4.1125,-6.39741 13.3054,-12.12067 19.4686,-12.12067 6.6853,0 15.9226,5.03774 22.239,12.12834 6.0823,6.82779 15.1759,25.16718 17.5392,35.37166 2.1789,9.40829 2.2337,29.42694 0.097,35.47589 -2.1578,6.10927 -9.5472,14.3874 -14.809,16.5902 -9.6599,4.04402 -24.0838,0.94154 -33.2876,-7.15997 -6.2764,-5.52458 -10.7136,-6.25762 -14.5651,-2.40612 -3.0967,3.09665 -3.229,9.00222 -0.3125,13.95161 2.2008,3.735 13.9656,11.93138 20.9375,14.58692 5.5591,2.11742 22.534,0.95213 30.4719,-2.09184 z m -66.8656,-15.30707 c 9.6833,-7.61686 9.3478,-24.18172 -0.5938,-29.32275 -2.3214,-1.20045 -5.1812,-1.67647 -7.2896,-1.2134 -3.9252,0.86212 -10.6534,7.37945 -11.9018,11.52883 -1.1837,3.93426 1.5454,11.98461 5.8216,17.17237 4.3113,5.23035 8.8833,5.83117 13.9636,1.83495 z m -90.4938,-6.83065 c 5.8506,-1.034 19.2894,-2.2859 29.8642,-2.78198 17.5019,-0.82108 19.3802,-1.13364 20.9371,-3.4843 1.5344,-2.31659 1.1135,-3.73152 -4.09,-13.75 -3.1902,-6.14223 -8.219,-14.54269 -11.1751,-18.66769 -2.9561,-4.125 -7.0616,-10.875 -9.1234,-15 -4.7754,-9.55446 -12.4291,-17.18666 -17.2381,-17.18982 -2.6958,-0.001 -4.7267,1.42146 -8.5373,5.98297 -2.75,3.29191 -8.6562,10.00271 -13.125,14.91289 -4.4687,4.91017 -9.25,10.8126 -10.625,13.1165 -1.375,2.3039 -4.0468,6.77384 -5.9374,9.93318 -4.3351,7.24464 -7.6417,18.13994 -6.6745,21.99329 1.4049,5.59776 3.7657,6.67564 14.7784,6.7476 5.6698,0.037 15.0955,-0.77863 20.9461,-1.81264 z m 147.0111,-9.19076 c 10.2042,-4.63417 14.5548,-16.16631 11.8367,-31.37566 -6.1927,-34.65244 -39.1904,-52.53016 -47.0508,-25.49151 -2.622,9.01935 -2.6559,29.38917 -0.064,38.19298 4.8852,16.59077 21.0379,25.14116 35.2777,18.67419 z m -95.6004,-45.43071 c 0.3453,-9.46271 -0.4329,-29.7415 -1.4751,-38.4375 -0.9493,-7.92153 -2.5942,-12.37885 -10.6093,-28.749997 -20.3535,-41.57242 -34.678,-67.72168 -40.6542,-74.21407 l -5.9012,-6.41093 -9.1917,0.0734 c -7.1572,0.0572 -10.7724,0.79802 -16.3328,3.34705 -8.4714,3.88354 -10.3036,7.74642 -6.6448,14.00929 1.2275,2.10114 3.6474,6.3515 5.3776,9.44525 1.7302,3.09375 6.1581,9.77378 9.8398,14.84452 3.6817,5.07073 9.5314,15.14567 12.9994,22.38875 6.0467,12.62869 17.5038,30.436657 21.96,34.132657 1.1665,0.9675 5.1629,6.47401 8.8809,12.23671 3.718,5.7627 10.1425,14.48145 14.2767,19.375 4.1342,4.89355 9.2928,11.85049 11.4636,15.45986 2.1708,3.60938 4.378,6.5625 4.9048,6.5625 0.5269,0 1.0247,-1.82812 1.1063,-4.0625 z m 158.3233,-15.60291 c 6.1163,-2.83939 9.0285,-7.25347 9.0285,-13.68498 0,-7.63062 -4.019,-11.64961 -11.6497,-11.64961 -11.5654,0 -19.1275,12.46756 -14.6713,24.1883 1.8547,4.87817 8.3291,5.30735 17.2925,1.14629 z"
     style="fill:#0b0a0a" />
</svg>
